# xmcd
#
# Track frame offsets: 
#        150
#        21265
#        39110
#        62252
#        81320
#        101405
#        125537
#        144665
#        161432
#        183395
#        201932
#        220602
#
# Disc length: 3195 seconds
#
# Revision: 1
# Processed by: cddbd v1.5.2PL0 Copyright (c) Steve Scherf et al.
# Submitted via: ExactAudioCopy v0.99pb4
#
DISCID=9b0c790c
DTITLE=John Mayall - Wake Up Call
DYEAR=1993
DGENRE=Blues
TTITLE0=Mail Order Mystics
TTITLE1=Maydell
TTITLE2=I Could Cry
TTITLE3=Wake Up Call
TTITLE4=Loaded Dice
TTITLE5=Undercover Agent For The Blues
TTITLE6=Light The Fuse
TTITLE7=Anything I Can Say
TTITLE8=Nature's Disappearing
TTITLE9=I'm A Sucker For Love
TTITLE10=Not At Home
TTITLE11=Ain't That Lovin' You Baby
EXTD=
EXTT0=
EXTT1=
EXTT2=
EXTT3=
EXTT4=
EXTT5=
EXTT6=
EXTT7=
EXTT8=
EXTT9=
EXTT10=
EXTT11=
PLAYORDER=
